<?xml version="1.0" standalone="no"?>
<!DOCTYPE svg PUBLIC "-//W3C//DTD SVG 20010904//EN"
 "http://www.w3.org/TR/2001/REC-SVG-20010904/DTD/svg10.dtd">
<svg version="1.0" xmlns="http://www.w3.org/2000/svg"
 width="2480.000000pt" height="3508.000000pt" viewBox="0 0 2480.000000 3508.000000"
 preserveAspectRatio="xMidYMid meet">

<g transform="translate(0.000000,3508.000000) scale(0.100000,-0.100000)"
fill="#000000" stroke="none">
<path d="M18903 22469 c-20 -6 -51 -32 -83 -68 -50 -57 -52 -58 -94 -54 -39 5
-45 3 -65 -25 -12 -17 -31 -51 -41 -75 -11 -25 -27 -47 -35 -51 -13 -5 -13
-10 1 -46 15 -37 15 -44 -5 -110 -12 -39 -40 -112 -61 -162 -30 -68 -37 -95
-30 -108 19 -35 10 -68 -33 -126 -82 -112 -81 -109 -61 -140 10 -15 34 -33 53
-41 33 -14 34 -16 16 -29 -10 -8 -25 -14 -32 -14 -20 0 -43 -55 -43 -103 0
-34 7 -53 30 -82 17 -21 37 -43 47 -50 10 -8 14 -21 11 -38 -3 -15 -1 -27 4
-27 24 0 14 -33 -32 -110 -52 -87 -63 -137 -35 -160 8 -6 22 -9 32 -6 15 5 24
-6 47 -60 16 -36 34 -68 41 -70 16 -6 135 61 162 91 12 14 25 41 29 60 8 43
77 95 127 95 72 0 105 -11 110 -37 7 -37 -17 -53 -81 -53 -54 0 -59 -3 -109
-50 -44 -41 -53 -56 -53 -84 0 -18 -7 -39 -15 -46 -21 -17 -19 -31 10 -69 23
-32 23 -35 7 -56 -9 -13 -40 -37 -68 -54 -71 -42 -76 -51 -58 -87 28 -52 15
-80 -101 -224 -86 -107 -103 -157 -144 -430 -44 -286 -67 -346 -144 -380 -51
-23 -64 -37 -107 -112 -34 -62 -77 -104 -140 -140 -30 -17 -55 -45 -92 -105
-29 -48 -68 -96 -93 -115 -28 -22 -55 -57 -81 -107 -34 -66 -42 -75 -68 -76
-22 -1 -42 -15 -84 -60 -50 -54 -132 -169 -132 -184 0 -3 23 -31 51 -61 98
-106 171 -192 181 -215 6 -13 19 -26 29 -28 50 -13 0 -43 -53 -32 -31 7 -138
104 -138 125 0 5 -9 14 -21 20 -21 12 -21 11 1 -18 28 -38 24 -86 -8 -90 -12
-2 -30 -14 -38 -27 -22 -33 -52 -41 -69 -18 -14 17 -14 17 -15 -4 0 -35 -39
-41 -66 -9 -28 31 -34 32 -34 6 0 -28 -38 -27 -49 2 l-8 22 -6 -23 c-5 -19
-10 -22 -31 -17 -28 7 -34 -5 -13 -22 8 -6 31 -7 67 -1 33 5 58 5 64 -1 13
-13 -7 -18 -99 -23 -80 -4 -88 -7 -180 -62 -56 -34 -91 -33 -110 5 -22 42 -19
51 25 98 47 48 62 52 78 17 17 -36 33 -32 20 6 -6 16 -8 32 -6 34 2 3 28 10
57 18 51 13 71 28 71 55 0 6 -7 12 -15 12 -8 0 -15 9 -15 19 0 11 -5 23 -12
27 -11 7 -8 -30 7 -67 5 -13 -4 -17 -47 -22 -88 -11 -108 -9 -108 11 0 9 12
45 27 79 24 55 33 64 64 73 66 18 139 30 235 36 l96 7 39 -44 40 -44 -26 42
c-29 50 -31 68 -9 77 9 4 14 9 11 12 -3 3 -31 -3 -62 -15 -36 -13 -79 -21
-121 -21 -36 0 -108 -10 -161 -22 l-96 -22 -25 -55 c-14 -30 -26 -71 -27 -91
l-2 -35 -79 -18 c-206 -48 -344 -105 -344 -142 0 -9 56 -126 125 -260 76 -148
133 -274 145 -318 28 -103 45 -222 81 -557 27 -260 30 -318 26 -485 -7 -223
-17 -312 -58 -495 -39 -172 -37 -269 8 -405 30 -88 30 -94 26 -235 -5 -143 -5
-146 26 -235 37 -106 38 -132 16 -505 -13 -229 -40 -494 -51 -512 -2 -4 -9
-94 -14 -200 -9 -169 -15 -217 -53 -387 -24 -107 -48 -196 -54 -198 -6 -2 -50
44 -97 102 -47 59 -86 100 -86 91 0 -20 -5 -20 -35 0 -42 27 -30 -1 45 -105
57 -80 76 -100 102 -105 42 -8 58 -23 58 -56 0 -31 24 -40 111 -40 54 0 50 -8
64 120 9 83 39 203 105 426 45 151 60 216 60 263 0 34 11 117 24 184 29 145
51 318 66 517 19 258 18 250 48 250 134 0 193 -232 142 -558 -88 -573 -92
-1166 -11 -1592 11 -58 25 -150 30 -206 6 -56 13 -108 17 -117 7 -20 42 -22
113 -5 47 10 51 14 57 46 4 19 4 85 0 146 -5 86 -11 114 -23 124 -9 6 -13 12
-7 12 5 0 9 153 10 388 0 227 6 430 13 492 6 58 14 160 18 227 4 77 10 127 18
133 25 21 217 41 435 47 192 4 228 3 245 -10 17 -13 21 -32 27 -134 15 -279
38 -476 59 -515 14 -26 124 -26 133 -1 15 38 25 221 26 439 l0 231 78 7 c98 9
244 37 451 87 90 22 210 47 265 55 56 8 118 19 140 25 21 6 41 8 44 5 3 -4 7
-115 8 -249 2 -133 10 -318 18 -412 20 -213 21 -398 3 -413 -7 -6 -38 -20 -69
-32 -56 -21 -95 -50 -67 -50 8 0 36 7 63 15 66 20 86 19 86 -3 0 -37 -65 -116
-185 -223 -130 -117 -177 -173 -197 -236 -11 -32 -18 -39 -47 -43 -41 -6 -61
-31 -42 -53 46 -56 561 -47 754 13 72 22 95 44 150 140 46 77 76 92 204 98
l105 5 29 61 c18 37 29 77 29 103 0 36 5 46 34 68 46 35 56 82 56 272 0 113 7
208 24 333 77 547 86 918 29 1185 -14 66 -34 364 -25 375 2 3 9 -4 16 -15 17
-30 63 -72 85 -78 14 -3 32 14 81 80 l61 85 30 -27 c16 -16 63 -81 104 -146
l76 -117 -2 -139 c-1 -125 1 -144 23 -198 23 -56 27 -60 56 -59 26 2 31 -1 29
-20 -1 -15 4 -21 18 -21 61 0 216 496 216 692 0 37 -7 102 -15 143 -13 69 -19
141 -17 213 1 23 5 27 29 27 15 0 33 4 40 8 18 12 32 69 32 133 0 72 -19 92
-115 121 l-75 23 0 38 c0 20 4 37 8 37 5 0 33 -13 63 -30 63 -35 99 -39 99
-11 0 23 -105 81 -146 81 -22 0 -33 8 -46 30 -15 27 -22 30 -65 30 -45 0 -563
78 -572 86 -2 2 1 26 6 54 8 37 6 84 -5 179 l-16 129 27 39 c15 22 27 44 27
51 0 6 -16 50 -35 96 -41 100 -46 165 -15 211 36 54 30 57 -71 49 -76 -6 -91
-4 -87 7 3 11 38 16 139 21 203 11 383 26 402 34 30 11 22 58 -46 291 -28 94
-42 171 -61 342 -30 257 -35 283 -121 536 -105 310 -114 352 -132 595 -21 300
-21 341 6 441 26 95 25 111 -28 284 -31 101 -30 166 2 247 31 76 34 135 13
248 -8 41 -20 143 -26 225 -15 183 -42 282 -115 422 -79 152 -137 227 -215
274 -36 22 -92 69 -125 105 -40 42 -75 70 -100 79 -37 12 -40 16 -40 52 -1 43
-54 129 -107 172 l-30 24 -46 -22 c-93 -45 -245 -153 -330 -234 -95 -91 -227
-199 -273 -222 -28 -15 -29 -14 -29 5 0 78 169 260 368 398 101 70 140 90 204
103 113 22 138 44 138 121 0 39 6 54 32 84 34 39 34 40 24 188 -9 118 -32 268
-51 335 -13 40 -28 64 -66 99 -48 44 -59 68 -40 88 6 5 2 18 -10 33 -18 22
-23 23 -65 14 -44 -10 -45 -10 -60 19 -8 16 -26 34 -39 40 -28 13 -30 19 -13
36 20 20 -19 26 -123 16 -84 -8 -104 -7 -136 8 -51 22 -93 22 -152 -1 -52 -20
-63 -19 -54 5 6 16 1 16 -44 3z m-660 -4081 c10 -105 15 -194 12 -196 -3 -3
-44 2 -93 11 -48 9 -145 26 -217 39 -71 12 -132 24 -134 25 -12 8 59 65 185
148 77 51 154 109 170 128 55 67 59 59 77 -155z m863 -250 c91 -79 164 -151
176 -172 9 -17 7 -19 -26 -13 -20 3 -50 15 -66 27 -22 16 -28 17 -24 6 11 -28
-42 -39 -156 -32 -58 3 -131 12 -162 20 -55 13 -59 12 -120 -15 -35 -16 -69
-29 -75 -29 -15 0 -17 -19 -4 -39 11 -18 -30 -61 -57 -61 -15 0 -17 12 -18 89
-1 88 0 88 30 108 17 11 63 41 101 66 39 26 79 53 90 61 16 11 34 12 89 4 87
-12 149 -43 203 -102 23 -25 48 -46 55 -46 22 0 -86 102 -129 122 -24 10 -43
21 -43 23 0 6 53 34 66 35 5 0 37 -23 70 -52z m-551 -258 c12 -19 -7 -60 -32
-66 -35 -9 -40 2 -18 41 18 34 38 44 50 25z m1793 -1292 c3 -23 0 -26 -18 -21
-13 4 -19 11 -16 20 3 8 6 19 6 25 0 21 25 0 28 -24z m-2666 -238 c2 -6 85
-11 203 -13 120 -2 211 -8 228 -15 38 -16 36 -50 -13 -179 -34 -91 -40 -118
-40 -183 l0 -77 -57 9 c-85 14 -340 2 -470 -22 -213 -39 -392 -109 -465 -182
-57 -57 -63 -45 -63 115 0 132 22 395 34 409 4 5 120 31 259 58 139 28 279 59
310 70 70 22 70 22 74 10z m1662 -46 c16 -42 -13 -67 -67 -57 -35 7 -34 26 1
52 33 25 58 27 66 5z m1326 -244 c0 -5 -11 -10 -25 -10 -14 0 -25 5 -25 10 0
6 11 10 25 10 14 0 25 -4 25 -10z m370 -110 c0 -22 -4 -40 -10 -40 -11 0 -14
63 -3 73 11 12 13 8 13 -33z m-140 10 c0 -5 -2 -10 -4 -10 -3 0 -8 5 -11 10
-3 6 -1 10 4 10 6 0 11 -4 11 -10z m-3010 -150 c0 -5 -7 -10 -15 -10 -8 0 -15
5 -15 10 0 6 7 10 15 10 8 0 15 -4 15 -10z m2997 -642 c30 -33 43 -62 34 -77
-6 -9 -19 0 -45 33 -21 25 -35 50 -31 56 9 15 19 12 42 -12z m-3420 -171 c18
-12 38 -32 45 -45 11 -21 10 -26 -11 -43 -29 -23 -34 -20 -71 44 -47 83 -37
95 37 44z m2042 -43 c2 -2 -7 -128 -20 -280 -19 -219 -27 -278 -39 -285 -8 -4
-82 -22 -165 -39 -137 -29 -659 -90 -779 -90 l-39 0 6 198 c6 190 27 375 47
411 8 15 30 19 152 24 462 20 670 37 735 61 33 12 89 12 102 0z m-1239 -182
c0 -37 -5 -83 -11 -102 -7 -21 -11 -113 -11 -237 1 -229 8 -211 -86 -238 -59
-17 -115 -23 -322 -35 -91 -5 -189 -15 -217 -21 -29 -7 -56 -10 -59 -6 -4 3
-1 74 6 157 11 130 11 153 -1 161 -12 8 -6 13 12 11 9 -1 19 144 19 265 l0
103 28 -11 c27 -11 287 -5 457 11 44 4 104 8 133 8 l52 2 0 -68z m2690 -57 c0
-28 -15 -34 -24 -9 -10 25 -7 34 9 34 9 0 15 -9 15 -25z m-2640 -170 c0 -8 -6
-15 -14 -15 -17 0 -28 14 -19 24 12 12 33 6 33 -9z m704 -316 c-3 -5 -10 -7
-15 -3 -5 3 -7 10 -3 15 3 5 10 7 15 3 5 -3 7 -10 3 -15z m1351 -39 c3 -5 -1
-10 -10 -10 -9 0 -13 5 -10 10 3 6 8 10 10 10 2 0 7 -4 10 -10z m-125 -190 c0
-5 -4 -10 -10 -10 -5 0 -10 5 -10 10 0 6 5 10 10 10 6 0 10 -4 10 -10z m-1940
-335 c0 -8 -4 -15 -10 -15 -5 0 -10 7 -10 15 0 8 5 15 10 15 6 0 10 -7 10 -15z
m-960 -265 c0 -5 -4 -10 -10 -10 -5 0 -10 5 -10 10 0 6 5 10 10 10 6 0 10 -4
10 -10z m2171 -113 c-1 -12 -15 -9 -19 4 -3 6 1 10 8 8 6 -3 11 -8 11 -12z
m34 -137 c3 -5 -1 -10 -9 -10 -9 0 -16 5 -16 10 0 6 4 10 9 10 6 0 13 -4 16
-10z m204 -156 c17 -4 31 -11 31 -15 0 -12 -90 -69 -109 -69 -10 0 -7 8 11 28
21 21 25 31 17 45 -11 19 -2 21 50 11z m416 -4 c3 -6 -4 -10 -17 -10 -18 0
-20 2 -8 10 19 12 18 12 25 0z m-555 -201 c0 -5 -7 -9 -15 -9 -15 0 -20 12 -9
23 8 8 24 -1 24 -14z m30 -19 c0 -5 -4 -10 -10 -10 -5 0 -10 5 -10 10 0 6 5
10 10 10 6 0 10 -4 10 -10z m-107 -22 c-13 -12 -25 -19 -29 -15 -10 10 16 37
34 37 13 0 12 -4 -5 -22z m-2153 -108 c0 -5 -4 -10 -10 -10 -5 0 -10 5 -10 10
0 6 5 10 10 10 6 0 10 -4 10 -10z m2340 0 c0 -5 -4 -10 -10 -10 -5 0 -10 5
-10 10 0 6 5 10 10 10 6 0 10 -4 10 -10z"/>
<path d="M4044 19895 c-9 -14 -65 -130 -124 -258 -59 -127 -169 -365 -245
-527 -239 -512 -315 -681 -315 -694 0 -30 25 -36 163 -36 80 0 147 5 159 11
11 6 40 54 65 107 24 53 50 100 56 104 16 10 558 10 574 0 6 -4 30 -48 53 -97
61 -132 48 -125 216 -125 78 0 149 3 158 6 9 3 16 15 16 26 0 10 -43 112 -96
226 -510 1098 -574 1235 -590 1260 -20 31 -68 30 -90 -3z m126 -811 c41 -92
77 -170 78 -175 2 -5 -68 -9 -157 -9 -89 0 -161 3 -161 7 0 12 154 343 159
343 3 0 40 -75 81 -166z"/>
<path d="M4986 19885 c-14 -15 -16 -85 -16 -741 0 -481 3 -732 10 -745 10 -17
23 -19 158 -19 81 0 154 5 162 10 13 8 15 52 15 295 l0 285 75 0 75 0 139
-278 c76 -152 145 -285 154 -294 13 -16 35 -18 177 -18 163 0 185 5 185 39 0
8 -62 129 -139 270 -76 141 -143 266 -150 278 -10 20 -6 24 55 58 36 20 89 61
118 90 237 237 143 636 -179 757 -58 22 -74 23 -441 26 -341 3 -383 1 -398
-13z m720 -314 c56 -25 87 -71 92 -137 6 -67 -27 -128 -86 -162 -37 -20 -52
-22 -218 -22 l-179 0 3 170 3 170 172 0 c146 0 178 -3 213 -19z"/>
<path d="M6260 19881 c-5 -11 -10 -76 -10 -145 0 -100 3 -128 16 -140 13 -13
43 -16 175 -16 l159 0 0 -581 c0 -381 4 -587 10 -600 10 -17 23 -19 165 -19
142 0 155 2 165 19 6 13 10 219 10 600 l0 581 159 0 c132 0 162 3 175 16 13
12 16 40 16 140 0 69 -5 134 -10 145 -10 18 -27 19 -515 19 -488 0 -505 -1
-515 -19z"/>
<path d="M7512 19888 c-9 -9 -12 -190 -12 -754 0 -667 2 -742 16 -748 9 -3 80
-6 159 -6 132 0 145 2 155 19 6 12 10 128 10 305 l0 286 310 0 310 0 0 -293
c0 -215 3 -296 12 -305 8 -8 58 -12 158 -12 100 0 150 4 158 12 17 17 17 1479
0 1496 -8 8 -58 12 -158 12 -100 0 -150 -4 -158 -12 -9 -9 -12 -88 -12 -295
l0 -283 -310 0 -310 0 0 276 c0 171 -4 283 -10 295 -10 17 -23 19 -158 19
-102 0 -152 -4 -160 -12z"/>
<path d="M9141 19886 c-9 -11 -11 -146 -9 -528 l3 -513 27 -74 c88 -241 296
-396 549 -409 263 -13 481 113 598 347 58 114 61 146 61 682 0 364 -3 488 -12
497 -18 18 -312 17 -326 -1 -8 -9 -12 -170 -14 -497 l-3 -485 -27 -50 c-33
-63 -70 -98 -132 -126 -59 -26 -154 -29 -207 -6 -50 20 -116 82 -142 131 -22
40 -22 50 -25 530 -2 334 -6 494 -14 503 -16 20 -311 19 -327 -1z"/>
<path d="M10712 19888 c-9 -9 -12 -190 -12 -754 0 -667 2 -742 16 -748 9 -3
80 -6 159 -6 132 0 145 2 155 19 6 12 10 124 10 295 l0 276 75 0 75 0 147
-292 148 -293 155 -3 c185 -3 200 -1 200 34 0 14 -53 123 -119 242 -129 237
-171 317 -171 329 0 4 25 21 56 37 382 200 317 752 -103 861 -75 20 -772 22
-791 3z m741 -331 c76 -58 93 -155 41 -230 -51 -71 -74 -77 -276 -77 l-178 0
0 171 0 170 188 -3 189 -3 36 -28z"/>
<path d="M3793 17960 c-192 -50 -318 -195 -330 -379 -15 -217 116 -380 407
-507 168 -73 231 -132 232 -218 2 -86 -51 -131 -152 -131 -79 1 -141 21 -245
81 -64 36 -85 44 -104 37 -28 -10 -142 -197 -138 -228 1 -11 29 -40 64 -66
101 -77 231 -118 398 -126 180 -8 305 32 417 136 179 165 185 438 14 614 -70
72 -118 102 -348 211 -116 55 -142 72 -168 107 -79 109 9 216 154 188 59 -11
133 -44 210 -93 66 -42 85 -44 113 -13 31 34 119 169 127 195 11 33 -41 78
-146 130 -160 79 -350 103 -505 62z"/>
<path d="M5235 17965 c-156 -34 -268 -97 -386 -214 -158 -158 -229 -328 -229
-548 0 -238 77 -415 254 -581 84 -78 211 -147 326 -179 91 -24 310 -24 400 0
99 27 221 92 286 151 54 49 58 55 49 79 -13 34 -183 207 -203 207 -8 0 -29
-11 -46 -24 -148 -112 -379 -116 -522 -7 -108 82 -165 192 -172 335 -5 111 15
193 68 274 135 209 400 258 608 112 32 -22 63 -40 69 -40 17 0 203 201 203
220 0 17 -41 58 -103 104 -60 44 -175 93 -259 110 -92 19 -259 20 -343 1z"/>
<path d="M7832 17968 c-9 -9 -12 -190 -12 -754 0 -662 2 -744 16 -758 13 -13
42 -16 158 -16 97 0 146 4 154 12 9 9 12 116 12 420 0 224 3 408 8 408 4 0
201 -193 437 -430 405 -405 432 -430 465 -430 20 0 41 5 48 12 16 16 17 1479
2 1509 -10 17 -23 19 -165 19 -112 0 -156 -3 -162 -12 -4 -7 -10 -188 -13
-403 l-5 -390 -300 289 c-165 159 -357 345 -426 413 -118 115 -130 123 -166
123 -21 0 -44 -5 -51 -12z"/>
<path d="M6183 17952 c-18 -11 -19 -1477 -2 -1498 18 -22 292 -20 313 2 14 13
16 55 16 305 l0 289 310 0 310 0 0 -293 c0 -215 3 -296 12 -305 15 -15 281
-17 309 -2 19 10 19 29 19 748 0 561 -3 741 -12 750 -8 8 -58 12 -158 12 -100
0 -150 -4 -158 -12 -9 -9 -12 -88 -12 -295 l0 -283 -310 0 -310 0 0 276 c0
171 -4 283 -10 295 -10 17 -23 19 -158 19 -81 0 -153 -4 -159 -8z"/>
<path d="M9492 17948 c-9 -9 -12 -189 -12 -750 0 -719 0 -738 19 -748 28 -15
294 -13 309 2 9 9 12 190 12 754 0 667 -2 742 -16 748 -31 12 -299 7 -312 -6z"/>
<path d="M10032 17948 c-8 -8 -12 -56 -12 -150 0 -126 2 -138 19 -148 11 -6
87 -10 175 -10 l156 0 0 -590 c0 -572 1 -590 19 -600 28 -15 294 -13 309 2 9
9 12 156 12 600 l0 588 163 0 c207 0 197 -8 197 159 0 67 -5 131 -10 142 -10
18 -27 19 -513 19 -378 0 -506 -3 -515 -12z"/>
<path d="M11202 17948 c-8 -8 -12 -56 -12 -150 0 -126 2 -138 19 -148 12 -6
112 -10 255 -10 130 0 236 -2 236 -5 0 -3 -31 -65 -69 -138 -523 -1005 -525
-1009 -489 -1045 9 -9 86 -12 282 -12 l271 0 -41 -25 c-125 -75 -150 -225 -54
-329 48 -52 99 -70 174 -64 109 9 186 92 186 200 0 31 -4 68 -9 81 -14 37 -69
96 -110 117 l-36 19 161 1 c110 0 164 4 172 12 17 17 17 279 0 296 -9 9 -79
12 -255 12 -134 0 -243 2 -243 4 0 2 126 259 280 571 154 311 280 573 280 580
0 7 -7 21 -16 29 -14 14 -72 16 -493 16 -358 0 -480 -3 -489 -12z"/>
<path d="M12432 17948 c-17 -17 -17 -1479 0 -1496 17 -17 859 -17 876 0 8 8
12 56 12 148 0 92 -4 140 -12 148 -9 9 -85 12 -280 12 l-268 0 0 588 c0 444
-3 591 -12 600 -17 17 -299 17 -316 0z"/>
<path d="M13523 17953 c-18 -7 -19 -1483 -1 -1501 9 -9 96 -12 331 -12 l319 0
-91 -95 c-188 -197 -202 -229 -200 -440 0 -76 -3 -141 -7 -142 -5 -2 -47 -25
-94 -52 -81 -46 -85 -50 -88 -86 l-3 -38 48 6 c26 4 76 9 110 13 l61 6 6 -43
c10 -84 26 -435 29 -634 2 -241 1 -245 -89 -263 -31 -7 -70 -12 -86 -12 -27 0
-28 -1 -28 -55 0 -46 3 -55 18 -55 9 0 105 7 212 15 107 7 288 17 403 21 l207
7 0 52 0 52 -107 5 c-60 2 -118 10 -130 16 -28 15 -41 61 -53 189 -13 148 -44
712 -39 718 3 2 83 8 178 11 111 5 174 11 176 18 13 50 22 153 15 160 -5 5
-38 4 -82 -3 -40 -7 -123 -15 -184 -18 l-112 -6 -6 69 c-4 38 -8 143 -9 234
-2 140 1 170 16 200 22 46 64 70 130 76 66 7 128 -12 201 -61 48 -32 61 -36
80 -27 22 10 23 16 30 172 5 110 4 166 -3 173 -6 6 -51 13 -101 15 l-90 4 0
44 c0 76 8 74 -336 74 l-304 0 0 145 0 145 253 0 c183 0 256 3 265 12 17 17
17 279 0 296 -9 9 -82 12 -265 12 l-253 0 0 135 0 135 304 0 c264 0 307 2 320
16 13 12 16 41 16 148 0 89 -4 136 -12 144 -9 9 -128 12 -478 11 -256 0 -471
-3 -477 -6z"/>
<path d="M14772 17948 c-17 -17 -17 -1479 0 -1496 8 -8 58 -12 158 -12 100 0
150 4 158 12 9 9 12 88 12 295 l0 284 77 -3 77 -3 142 -280 c78 -154 147 -286
154 -292 8 -10 56 -13 175 -13 155 0 165 1 175 20 12 23 9 29 -194 403 -53 98
-96 181 -96 185 0 4 26 20 57 37 89 46 167 125 210 212 31 64 37 86 41 160 8
152 -29 254 -130 359 -62 65 -147 114 -228 133 -67 16 -772 15 -788 -1z m734
-323 c46 -27 84 -90 84 -141 -1 -38 -31 -103 -61 -131 -41 -37 -74 -43 -255
-43 l-174 0 0 170 0 170 182 0 c175 0 183 -1 224 -25z"/>
<path d="M9200 16239 c-209 -16 -275 -20 -528 -29 -145 -4 -265 -10 -267 -12
-1 -2 -1 -26 2 -54 l5 -51 87 -5 c101 -6 125 -16 140 -59 29 -85 91 -1071 91
-1458 l0 -138 -60 -47 c-50 -40 -60 -52 -54 -69 4 -12 8 -24 10 -26 2 -2 68 1
146 8 79 6 235 14 348 17 343 9 499 36 641 110 222 116 358 372 320 600 -22
129 -96 241 -200 302 -55 32 -170 60 -284 68 -48 4 -90 10 -92 14 -2 4 22 15
53 24 173 54 316 157 375 270 31 58 32 66 32 176 0 101 -3 121 -24 162 -50
102 -139 164 -274 192 -82 17 -293 20 -467 5z m181 -149 c76 -21 136 -81 160
-159 20 -66 23 -202 5 -264 -41 -141 -146 -203 -382 -222 l-81 -7 -6 98 c-4
55 -10 201 -13 326 l-7 227 34 4 c71 8 255 6 290 -3z m5 -791 c120 -22 207
-96 255 -216 20 -51 23 -76 24 -203 0 -129 -3 -151 -23 -202 -45 -111 -144
-190 -270 -217 -56 -12 -157 -13 -206 -2 -27 5 -30 10 -33 51 -6 94 -33 629
-34 705 l-2 80 59 6 c102 10 168 9 230 -2z"/>
<path d="M15410 15970 c-118 -14 -234 -70 -387 -187 -140 -106 -189 -208 -200
-418 -16 -305 80 -538 274 -662 185 -118 494 -122 735 -10 93 43 110 59 141
134 25 60 25 61 7 78 -19 17 -23 16 -87 -18 -207 -108 -440 -84 -575 60 -47
50 -95 141 -117 221 -31 116 -37 109 82 116 56 3 185 11 287 17 130 8 221 19
305 38 l120 27 3 81 c9 260 -122 453 -346 507 -79 20 -165 25 -242 16z m112
-175 c73 -48 114 -146 119 -282 l3 -68 -90 -12 c-108 -14 -381 -17 -389 -4 -3
6 -1 58 5 118 15 166 57 235 163 269 59 19 143 10 189 -21z"/>
<path d="M12980 15841 c-93 -13 -161 -38 -253 -93 -180 -107 -268 -199 -309
-323 -20 -62 -23 -89 -23 -245 0 -203 8 -245 71 -378 58 -120 131 -195 247
-252 191 -94 452 -91 672 9 102 47 129 71 155 141 21 56 22 63 7 77 -15 15
-23 14 -94 -20 -139 -65 -255 -81 -368 -52 -162 43 -272 161 -320 343 -20 80
-20 102 4 102 10 0 137 7 282 15 245 15 375 33 503 72 17 5 18 13 13 107 -17
270 -122 419 -337 479 -70 20 -179 27 -250 18z m64 -153 c93 -28 153 -135 163
-289 l6 -86 -39 -6 c-21 -4 -131 -9 -243 -13 l-203 -7 7 89 c3 49 11 112 16
141 26 135 157 211 293 171z"/>
<path d="M11865 15757 c-82 -34 -256 -80 -370 -97 -44 -7 -84 -16 -89 -21 -5
-4 -6 -27 -2 -51 l6 -43 73 0 c86 0 122 -9 131 -32 14 -35 37 -390 43 -648 7
-320 14 -301 -117 -318 l-80 -11 0 -53 c0 -36 4 -53 13 -53 6 0 98 7 202 14
105 8 272 18 373 22 l183 6 -3 52 -3 51 -86 6 c-47 3 -90 9 -96 12 -19 12 -32
97 -43 267 -15 237 -30 634 -30 782 0 156 -2 158 -105 115z"/>
<path d="M11073 15726 c-35 -17 -64 -41 -93 -78 -129 -165 -156 -197 -167
-198 -10 0 -13 33 -13 134 0 84 -4 137 -11 141 -5 4 -49 -10 -96 -30 -96 -41
-226 -76 -355 -96 l-88 -13 0 -48 c0 -26 5 -49 10 -49 6 -1 15 -3 20 -4 6 -1
41 -3 80 -4 91 -1 95 -8 109 -171 21 -259 35 -712 22 -757 -13 -46 -26 -53
-133 -68 l-48 -6 0 -54 0 -55 43 5 c94 11 334 25 535 31 l212 7 0 52 0 52 -92
6 c-51 3 -100 8 -110 12 -33 13 -43 63 -58 300 -16 258 -14 447 4 483 36 69
118 112 215 112 59 0 82 -10 127 -52 27 -25 34 -27 57 -19 l27 11 0 184 c0
209 6 196 -88 196 -39 0 -73 -8 -109 -24z"/>
<path d="M14370 9661 c0 -5 10 -11 23 -13 22 -3 22 -4 25 -211 2 -202 2 -209
-18 -214 -43 -11 -17 -23 51 -23 44 0 68 4 64 10 -3 6 -12 10 -20 10 -22 0
-25 25 -25 241 l0 209 -50 0 c-27 0 -50 -4 -50 -9z"/>
<path d="M14540 9661 c0 -5 10 -11 23 -13 22 -3 22 -5 25 -193 3 -204 0 -235
-23 -235 -8 0 -15 -4 -15 -10 0 -6 30 -10 71 -10 44 0 68 4 64 10 -3 6 -12 10
-20 10 -22 0 -25 25 -25 241 l0 209 -50 0 c-27 0 -50 -4 -50 -9z"/>
<path d="M9650 9620 c0 -5 8 -10 18 -10 38 0 42 -18 42 -195 0 -177 -4 -195
-42 -195 -10 0 -18 -4 -18 -10 0 -6 30 -10 70 -10 40 0 70 4 70 10 0 6 -6 10
-14 10 -32 0 -37 27 -34 181 l3 154 75 -178 c41 -97 79 -176 83 -174 5 1 41
80 80 175 39 94 75 172 79 172 12 0 10 -274 -2 -304 -5 -14 -16 -26 -25 -26
-8 0 -15 -4 -15 -10 0 -6 32 -10 75 -10 43 0 75 4 75 10 0 6 -9 10 -20 10 -28
0 -31 23 -28 210 3 160 4 165 26 175 38 17 24 26 -34 23 l-56 -3 -66 -162
c-36 -90 -69 -163 -72 -163 -4 0 -38 74 -75 165 l-69 165 -63 0 c-35 0 -63 -4
-63 -10z"/>
<path d="M11827 9623 c-3 -4 -28 -69 -55 -143 -95 -257 -92 -250 -118 -256
-45 -12 -24 -24 41 -24 37 0 65 4 65 10 0 6 -9 10 -19 10 -32 0 -34 17 -11 85
l22 65 72 0 73 0 16 -60 c22 -77 21 -90 -3 -90 -11 0 -20 -4 -20 -10 0 -6 33
-10 80 -10 47 0 80 4 80 10 0 6 -9 10 -20 10 -26 0 -31 11 -104 223 -59 169
-81 209 -99 180z m36 -155 l26 -78 -65 0 -64 0 30 82 c17 45 30 84 30 87 0 19
21 -26 43 -91z"/>
<path d="M13460 9620 c0 -5 8 -10 18 -10 38 0 42 -18 42 -195 0 -177 -4 -195
-42 -195 -10 0 -18 -4 -18 -10 0 -6 30 -10 70 -10 40 0 70 4 70 10 0 6 -6 10
-14 10 -32 0 -37 27 -34 181 l3 154 75 -178 c41 -97 79 -176 83 -174 5 1 41
80 80 175 39 94 75 172 79 172 12 0 10 -274 -2 -304 -5 -14 -16 -26 -25 -26
-8 0 -15 -4 -15 -10 0 -6 32 -10 75 -10 43 0 75 4 75 10 0 6 -9 10 -20 10 -28
0 -31 23 -28 210 3 160 4 165 26 175 38 17 24 26 -34 23 l-56 -3 -66 -162
c-36 -90 -69 -163 -72 -163 -4 0 -38 74 -75 165 l-69 165 -63 0 c-35 0 -63 -4
-63 -10z"/>
<path d="M11022 9608 c-28 -28 -3 -66 33 -52 20 8 19 50 -1 58 -20 8 -18 8
-32 -6z"/>
<path d="M14103 9613 c-19 -7 -16 -50 4 -57 24 -10 46 21 32 45 -10 19 -15 21
-36 12z"/>
<path d="M14222 9608 c-16 -16 -15 -33 4 -48 22 -19 54 12 38 37 -14 22 -27
26 -42 11z"/>
<path d="M10827 9545 c-9 -19 -31 -44 -49 -55 l-33 -20 28 0 27 0 0 -118 c0
-133 6 -149 61 -158 29 -5 41 -1 65 20 16 14 24 26 17 26 -6 0 -15 -4 -18 -10
-9 -14 -48 -13 -63 2 -8 8 -12 50 -12 125 l0 113 45 0 c25 0 45 5 45 10 0 6
-21 10 -46 10 l-47 0 5 45 c7 54 -2 57 -25 10z"/>
<path d="M12497 9545 c-9 -19 -31 -44 -49 -55 l-33 -20 28 0 27 0 0 -118 c0
-133 6 -149 61 -158 29 -5 41 -1 65 20 16 14 24 26 17 26 -6 0 -15 -4 -18 -10
-9 -14 -48 -13 -63 2 -8 8 -12 50 -12 125 l0 113 45 0 c25 0 45 5 45 10 0 6
-21 10 -46 10 l-47 0 5 45 c7 54 -2 57 -25 10z"/>
<path d="M10310 9489 c-38 -15 -60 -40 -60 -66 0 -16 6 -23 20 -23 14 0 20 7
20 21 0 37 19 59 50 59 37 0 60 -32 60 -81 l0 -37 -52 -7 c-93 -13 -118 -34
-118 -101 0 -62 83 -81 143 -33 24 18 25 18 30 -1 4 -16 14 -20 46 -20 43 0
55 14 21 23 -18 5 -20 14 -20 112 0 58 -4 115 -10 125 -10 18 -60 41 -89 39
-9 0 -27 -5 -41 -10z m90 -186 c0 -63 -70 -109 -108 -71 -38 38 10 108 74 108
32 0 34 -2 34 -37z"/>
<path d="M10663 9465 c-19 -19 -37 -35 -39 -35 -2 0 -4 14 -4 30 0 29 -2 30
-45 30 -49 0 -58 -10 -22 -25 20 -9 22 -17 25 -107 3 -100 -6 -138 -33 -138
-8 0 -15 -4 -15 -10 0 -6 30 -10 70 -10 67 0 93 12 50 23 -18 5 -20 14 -20 94
0 110 14 136 68 131 29 -2 37 1 40 16 4 17 -12 35 -31 36 -5 0 -25 -16 -44
-35z"/>
<path d="M11320 9493 c-8 -3 -27 -15 -42 -25 -28 -19 -28 -19 -28 1 0 18 -6
21 -50 21 -54 0 -64 -9 -27 -25 20 -9 22 -17 25 -107 3 -100 -6 -138 -33 -138
-8 0 -15 -4 -15 -10 0 -6 30 -10 70 -10 67 0 93 12 50 23 -18 5 -20 14 -20
105 0 97 1 101 26 121 30 23 74 27 92 9 8 -8 12 -50 12 -121 0 -100 -2 -109
-20 -114 -43 -11 -17 -23 50 -23 40 0 70 4 70 10 0 6 -7 10 -15 10 -25 0 -37
49 -31 118 9 88 -6 137 -46 151 -33 12 -45 12 -68 4z"/>
<path d="M12240 9493 c-8 -3 -27 -15 -42 -25 -28 -19 -28 -19 -28 1 0 18 -6
21 -50 21 -54 0 -64 -9 -27 -25 20 -9 22 -17 25 -107 3 -100 -6 -138 -33 -138
-8 0 -15 -4 -15 -10 0 -6 30 -10 70 -10 67 0 93 12 50 23 -18 5 -20 14 -20
105 0 97 1 101 26 121 30 23 74 27 92 9 8 -8 12 -50 12 -121 0 -100 -2 -109
-20 -114 -43 -11 -17 -23 50 -23 40 0 70 4 70 10 0 6 -7 10 -15 10 -25 0 -37
49 -31 118 8 81 -6 135 -39 150 -27 13 -50 14 -75 5z"/>
<path d="M12733 9489 c-69 -20 -109 -116 -84 -201 24 -77 95 -113 176 -86 125
41 120 267 -6 292 -38 7 -45 7 -86 -5z m95 -32 c41 -43 41 -182 1 -226 -27
-29 -70 -27 -99 4 -19 20 -25 40 -28 90 -2 35 -1 76 2 90 16 62 83 85 124 42z"/>
<path d="M13140 9493 c-8 -3 -27 -15 -42 -25 -28 -19 -28 -19 -28 1 0 18 -6
21 -50 21 -54 0 -64 -9 -27 -25 20 -9 22 -17 25 -107 3 -100 -6 -138 -33 -138
-8 0 -15 -4 -15 -10 0 -6 30 -10 70 -10 67 0 93 12 50 23 -18 5 -20 14 -20
105 0 97 1 101 26 121 30 23 74 27 92 9 8 -8 12 -50 12 -121 0 -100 -2 -109
-20 -114 -43 -11 -17 -23 50 -23 40 0 70 4 70 10 0 6 -7 10 -15 10 -25 0 -37
49 -31 120 7 83 -6 133 -40 148 -26 13 -49 14 -74 5z"/>
<path d="M14811 9482 c-57 -29 -76 -64 -76 -140 0 -54 5 -73 23 -99 42 -59
149 -66 197 -13 25 28 12 37 -16 11 -15 -13 -36 -21 -59 -21 -49 0 -81 34 -87
94 l-6 45 94 3 94 3 -3 35 c-5 50 -19 70 -57 86 -45 18 -63 18 -104 -4z m93
-24 c9 -12 16 -35 16 -50 0 -28 -1 -28 -65 -28 -62 0 -65 1 -65 24 0 63 81
101 114 54z"/>
<path d="M15163 9465 c-19 -19 -37 -35 -39 -35 -2 0 -4 14 -4 30 0 29 -2 30
-45 30 -49 0 -58 -10 -22 -25 20 -9 22 -17 25 -107 3 -100 -6 -138 -33 -138
-8 0 -15 -4 -15 -10 0 -6 30 -10 70 -10 67 0 93 12 50 23 -18 5 -20 14 -20 94
0 110 14 136 68 131 29 -2 37 1 40 16 4 17 -12 35 -31 36 -5 0 -25 -16 -44
-35z"/>
<path d="M10970 9480 c0 -5 9 -10 19 -10 26 0 31 -18 31 -121 0 -93 -10 -129
-35 -129 -8 0 -15 -4 -15 -10 0 -6 30 -10 70 -10 67 0 93 12 50 23 -19 5 -20
14 -20 136 l0 131 -50 0 c-27 0 -50 -4 -50 -10z"/>
<path d="M14020 9480 c0 -5 9 -10 19 -10 27 0 31 -18 31 -134 0 -92 2 -105 21
-122 29 -26 90 -24 129 5 31 23 31 23 37 2 4 -17 13 -21 49 -21 48 0 56 10 22
25 -22 10 -23 16 -25 135 l-1 125 -51 3 c-50 3 -74 -13 -28 -20 21 -3 22 -8
25 -102 3 -90 1 -101 -19 -122 -25 -26 -77 -32 -97 -12 -8 8 -12 53 -12 135
l0 123 -50 0 c-27 0 -50 -4 -50 -10z"/>
<path d="M15251 9281 c-11 -7 -11 -15 0 -45 11 -31 11 -40 -4 -72 -24 -50 -16
-53 22 -7 33 40 42 98 19 121 -14 14 -19 15 -37 3z"/>
<path d="M10670 8950 c0 -5 9 -10 19 -10 25 0 31 -19 31 -97 l0 -65 -35 6
c-89 17 -161 -38 -172 -132 -15 -127 79 -210 169 -149 34 24 36 24 41 6 4 -15
14 -19 51 -19 47 0 64 16 24 22 -23 3 -23 3 -26 226 l-2 222 -50 0 c-28 0 -50
-4 -50 -10z m38 -192 c8 -8 12 -47 12 -110 0 -85 -3 -101 -20 -118 -20 -20
-54 -26 -85 -14 -52 20 -65 168 -19 223 20 24 34 31 63 31 20 0 42 -5 49 -12z"/>
<path d="M9715 8921 c-111 -29 -167 -106 -167 -231 -1 -113 46 -177 147 -200
51 -12 146 -6 178 11 14 8 17 24 17 85 0 67 2 76 20 81 45 12 15 23 -60 23
-44 0 -80 -4 -80 -9 0 -5 12 -11 28 -13 26 -3 27 -5 30 -71 4 -83 -5 -97 -65
-97 -60 0 -98 22 -125 73 -32 59 -33 205 -2 257 29 50 78 80 131 80 59 0 81
-13 89 -55 10 -54 24 -52 24 4 0 27 -4 52 -9 55 -17 11 -125 15 -156 7z"/>
<path d="M13854 8920 c-43 -14 -75 -52 -81 -98 -7 -56 17 -92 92 -136 66 -39
92 -62 95 -86 9 -61 -20 -100 -76 -100 -53 0 -73 15 -85 65 -16 63 -31 56 -27
-12 l3 -58 40 -7 c104 -19 186 19 200 94 11 59 -14 101 -87 143 -86 51 -108
72 -108 109 0 37 7 49 37 65 53 28 104 6 118 -51 4 -16 11 -28 16 -28 12 0 11
87 -1 95 -18 11 -105 14 -136 5z"/>
<path d="M11060 8910 c0 -5 7 -10 15 -10 28 0 35 -39 35 -195 0 -163 -7 -195
-40 -195 -11 0 -20 -4 -20 -10 0 -6 33 -10 80 -10 47 0 80 4 80 10 0 6 -7 10
-15 10 -25 0 -35 35 -35 119 l0 81 100 0 101 0 -3 -97 c-3 -93 -4 -98 -25
-101 -13 -2 -23 -8 -23 -13 0 -5 36 -9 80 -9 44 0 80 4 80 9 0 5 -10 11 -22
13 -23 3 -23 4 -23 193 0 189 0 190 23 193 12 2 22 8 22 13 0 5 -36 9 -80 9
-47 0 -80 -4 -80 -10 0 -5 9 -10 19 -10 25 0 31 -19 31 -101 l0 -69 -100 0
-101 0 3 78 c3 69 5 78 26 87 39 17 24 25 -53 25 -43 0 -75 -4 -75 -10z"/>
<path d="M10061 8772 c-57 -29 -76 -64 -76 -140 0 -54 5 -73 23 -99 42 -59
149 -66 197 -13 25 28 12 37 -16 11 -15 -13 -36 -21 -59 -21 -49 0 -81 34 -87
94 l-6 45 94 3 94 3 -3 35 c-5 50 -19 70 -57 86 -45 18 -63 18 -104 -4z m93
-24 c9 -12 16 -35 16 -50 0 -28 -1 -28 -65 -28 -62 0 -65 1 -65 24 0 63 81
101 114 54z"/>
<path d="M10413 8755 c-19 -19 -37 -35 -39 -35 -2 0 -4 14 -4 30 0 29 -2 30
-45 30 -49 0 -58 -10 -22 -25 20 -9 22 -17 25 -107 3 -100 -6 -138 -33 -138
-8 0 -15 -4 -15 -10 0 -6 30 -10 70 -10 67 0 93 12 50 23 -18 5 -20 14 -20 94
0 110 14 136 68 131 29 -2 37 1 40 16 4 17 -12 35 -31 36 -5 0 -25 -16 -44
-35z"/>
<path d="M11601 8772 c-57 -29 -76 -64 -76 -140 0 -54 5 -73 23 -99 42 -59
149 -66 197 -13 25 28 12 37 -16 11 -15 -13 -36 -21 -59 -21 -49 0 -81 34 -87
94 l-6 45 94 3 94 3 -3 35 c-5 50 -19 70 -57 86 -45 18 -63 18 -104 -4z m93
-24 c9 -12 16 -35 16 -50 0 -28 -1 -28 -65 -28 -62 0 -65 1 -65 24 0 63 81
101 114 54z"/>
<path d="M11953 8755 c-19 -19 -37 -35 -39 -35 -2 0 -4 14 -4 30 0 29 -2 30
-45 30 -49 0 -58 -10 -22 -25 20 -9 22 -17 25 -107 3 -100 -6 -138 -33 -138
-8 0 -15 -4 -15 -10 0 -6 30 -10 70 -10 67 0 93 12 50 23 -18 5 -20 14 -20 94
0 110 14 136 68 131 29 -2 37 1 40 16 4 17 -12 35 -31 36 -5 0 -25 -16 -44
-35z"/>
<path d="M12220 8783 c-8 -3 -27 -15 -42 -25 -28 -19 -28 -19 -28 1 0 18 -6
21 -50 21 -54 0 -64 -9 -27 -25 20 -9 22 -17 25 -107 3 -100 -6 -138 -33 -138
-8 0 -15 -4 -15 -10 0 -6 30 -10 70 -10 67 0 93 12 50 23 -18 5 -20 14 -20
105 0 97 1 101 26 121 34 27 80 27 94 2 11 -21 14 -189 4 -215 -3 -9 -12 -16
-20 -16 -8 0 -14 -4 -14 -10 0 -6 28 -10 65 -10 63 0 86 12 45 23 -18 5 -20
14 -20 102 0 89 2 98 25 120 26 27 73 33 93 13 8 -8 12 -50 12 -121 0 -100 -2
-109 -20 -114 -43 -11 -17 -23 51 -23 44 0 68 4 64 10 -3 6 -12 10 -20 10 -20
0 -25 24 -25 134 0 112 -7 127 -61 141 -29 7 -76 -12 -99 -40 -12 -15 -15 -14
-34 9 -21 26 -68 40 -96 29z"/>
<path d="M12680 8779 c-38 -15 -60 -40 -60 -66 0 -16 6 -23 20 -23 14 0 20 7
20 21 0 37 19 59 50 59 37 0 60 -32 60 -81 l0 -37 -52 -7 c-93 -13 -118 -34
-118 -101 0 -62 83 -81 143 -33 24 18 25 18 30 -1 4 -16 14 -20 46 -20 43 0
55 14 21 23 -18 5 -20 14 -20 112 0 58 -4 115 -10 125 -10 18 -60 41 -89 39
-9 0 -27 -5 -41 -10z m90 -186 c0 -63 -70 -109 -108 -71 -38 38 10 108 74 108
32 0 34 -2 34 -37z"/>
<path d="M13070 8783 c-8 -3 -27 -15 -42 -25 -28 -19 -28 -19 -28 1 0 18 -6
21 -50 21 -54 0 -64 -9 -27 -25 20 -9 22 -17 25 -107 3 -100 -6 -138 -33 -138
-8 0 -15 -4 -15 -10 0 -6 30 -10 70 -10 67 0 93 12 50 23 -18 5 -20 14 -20
105 0 97 1 101 26 121 30 23 74 27 92 9 8 -8 12 -50 12 -121 0 -100 -2 -109
-20 -114 -43 -11 -17 -23 50 -23 40 0 70 4 70 10 0 6 -7 10 -15 10 -25 0 -37
49 -31 120 7 83 -6 133 -40 148 -26 13 -49 14 -74 5z"/>
<path d="M13430 8783 c-8 -3 -27 -15 -42 -25 -28 -19 -28 -19 -28 1 0 18 -6
21 -50 21 -54 0 -64 -9 -27 -25 20 -9 22 -17 25 -107 3 -100 -6 -138 -33 -138
-8 0 -15 -4 -15 -10 0 -6 30 -10 70 -10 67 0 93 12 50 23 -18 5 -20 14 -20
105 0 97 1 101 26 121 30 23 74 27 92 9 8 -8 12 -50 12 -121 0 -100 -2 -109
-20 -114 -43 -11 -17 -23 50 -23 40 0 70 4 70 10 0 6 -7 10 -15 10 -25 0 -37
49 -31 118 8 81 -6 135 -39 150 -27 13 -50 14 -75 5z"/>
<path d="M14493 8783 c-30 -6 -63 -49 -63 -83 0 -31 28 -59 90 -90 51 -26 60
-36 60 -67 0 -45 -87 -60 -114 -21 -9 12 -16 30 -16 40 0 10 -4 18 -10 18 -5
0 -10 -18 -10 -40 0 -48 12 -55 87 -54 68 0 103 29 103 85 0 42 -9 51 -89 94
-49 26 -56 34 -56 60 0 23 6 32 26 39 42 15 79 0 86 -34 8 -43 23 -37 23 9 0
35 -3 39 -31 45 -33 6 -49 6 -86 -1z"/>
<path d="M14761 8772 c-57 -29 -76 -64 -76 -140 0 -54 5 -73 23 -99 42 -59
149 -66 197 -13 25 28 12 37 -16 11 -15 -13 -36 -21 -59 -21 -49 0 -81 34 -87
94 l-6 45 94 3 94 3 -3 35 c-5 50 -19 70 -57 86 -45 18 -63 18 -104 -4z m93
-24 c9 -12 16 -35 16 -50 0 -28 -1 -28 -65 -28 -62 0 -65 1 -65 24 0 63 81
101 114 54z"/>
<path d="M15150 8783 c-8 -3 -27 -15 -42 -25 -28 -19 -28 -19 -28 1 0 18 -6
21 -50 21 -54 0 -64 -9 -27 -25 20 -9 22 -17 25 -107 3 -100 -6 -138 -33 -138
-8 0 -15 -4 -15 -10 0 -6 30 -10 70 -10 67 0 93 12 50 23 -18 5 -20 14 -20
105 0 97 1 101 26 121 30 23 74 27 92 9 8 -8 12 -50 12 -121 0 -100 -2 -109
-20 -114 -43 -11 -17 -23 50 -23 40 0 70 4 70 10 0 6 -7 10 -15 10 -25 0 -37
49 -31 120 7 83 -6 133 -40 148 -26 13 -49 14 -74 5z"/>
<path d="M14060 8770 c0 -5 9 -10 19 -10 27 0 31 -18 31 -134 0 -92 2 -105 21
-122 29 -26 90 -24 129 5 31 23 31 23 37 2 4 -17 13 -21 49 -21 48 0 56 10 22
25 -22 10 -23 16 -25 135 l-1 125 -51 3 c-50 3 -74 -13 -28 -20 21 -3 22 -8
25 -102 3 -90 1 -101 -19 -122 -25 -26 -77 -32 -97 -12 -8 8 -12 53 -12 135
l0 123 -50 0 c-27 0 -50 -4 -50 -10z"/>
<path d="M10850 8650 c0 -18 7 -20 75 -20 68 0 75 2 75 20 0 18 -7 20 -75 20
-68 0 -75 -2 -75 -20z"/>
<path d="M15371 8571 c-11 -7 -11 -15 0 -45 11 -31 11 -40 -4 -72 -24 -50 -16
-53 22 -7 33 40 42 98 19 121 -14 14 -19 15 -37 3z"/>
<path d="M13813 8212 c-31 -41 -69 -121 -83 -170 -18 -67 -14 -178 9 -253 20
-64 87 -179 104 -179 5 0 7 3 5 8 -1 4 -20 41 -41 84 -73 148 -73 302 1 450
20 40 38 76 40 81 10 19 -17 4 -35 -21z"/>
<path d="M14840 8237 c0 -2 17 -37 39 -78 77 -149 78 -307 4 -457 -21 -43 -39
-80 -41 -84 -2 -5 0 -8 5 -8 18 0 84 116 104 182 27 88 23 215 -10 299 -23 62
-78 149 -92 149 -5 0 -9 -1 -9 -3z"/>
<path d="M9980 8200 c0 -5 7 -10 15 -10 28 0 35 -39 35 -194 0 -168 -7 -202
-42 -209 -13 -3 45 -4 127 -3 l150 1 6 45 c7 46 -6 79 -16 44 -20 -63 -27 -69
-98 -72 -82 -4 -79 -13 -75 208 3 160 4 165 26 175 39 17 24 25 -53 25 -43 0
-75 -4 -75 -10z"/>
<path d="M11640 8201 c0 -5 10 -11 23 -13 22 -3 22 -6 27 -163 6 -180 15 -212
72 -236 46 -20 139 -17 171 4 49 32 60 69 66 227 4 80 10 151 14 158 5 6 17
12 28 12 10 0 19 5 19 10 0 6 -30 10 -70 10 -72 0 -87 -8 -47 -25 21 -10 22
-16 25 -140 4 -146 -6 -194 -45 -224 -37 -30 -103 -28 -140 3 l-28 24 0 169
c0 167 0 168 23 171 12 2 22 8 22 13 0 5 -36 9 -80 9 -44 0 -80 -4 -80 -9z"/>
<path d="M13930 8200 c0 -5 7 -10 15 -10 28 0 35 -39 35 -195 0 -163 -7 -195
-40 -195 -11 0 -20 -4 -20 -10 0 -6 33 -10 80 -10 47 0 80 4 80 10 0 6 -7 10
-15 10 -25 0 -35 35 -35 119 l0 81 100 0 101 0 -3 -97 c-3 -93 -4 -98 -25
-101 -13 -2 -23 -8 -23 -13 0 -5 36 -9 80 -9 44 0 80 4 80 9 0 5 -10 11 -22
13 -23 3 -23 4 -23 193 0 189 0 190 23 193 12 2 22 8 22 13 0 5 -36 9 -80 9
-47 0 -80 -4 -80 -10 0 -5 9 -10 19 -10 25 0 31 -19 31 -101 l0 -69 -100 0
-101 0 3 78 c3 69 5 78 26 87 39 17 24 25 -53 25 -43 0 -75 -4 -75 -10z"/>
<path d="M12507 8125 c-9 -19 -31 -44 -49 -55 l-33 -20 28 0 27 0 0 -118 c0
-133 6 -149 61 -158 29 -5 41 -1 65 20 16 14 24 26 17 26 -6 0 -15 -4 -18 -10
-9 -14 -48 -13 -63 2 -8 8 -12 50 -12 125 l0 113 45 0 c25 0 45 5 45 10 0 6
-21 10 -46 10 l-47 0 5 45 c7 54 -2 57 -25 10z"/>
<path d="M14624 8073 c-10 -16 -17 -16 -72 -5 -51 10 -67 10 -94 -1 -45 -19
-60 -39 -65 -90 -5 -38 -1 -48 25 -78 30 -34 30 -34 11 -58 -23 -28 -25 -67
-3 -75 9 -3 44 -6 78 -6 39 0 69 -6 84 -16 43 -30 19 -94 -44 -114 -77 -26
-143 15 -129 81 6 26 4 30 -12 27 -10 -2 -19 -13 -21 -27 -10 -66 31 -101 118
-101 90 0 140 42 140 117 0 55 -25 72 -117 81 -63 6 -68 9 -68 30 0 21 5 24
49 27 68 4 101 38 101 103 0 26 -4 55 -9 65 -7 15 -5 17 16 12 26 -7 55 16 43
35 -9 15 -19 12 -31 -7z m-84 -28 c19 -23 23 -105 8 -135 -16 -30 -59 -38 -81
-16 -24 24 -31 88 -13 130 12 30 20 36 44 36 16 0 35 -7 42 -15z"/>
<path d="M10400 8069 c-38 -15 -60 -40 -60 -66 0 -16 6 -23 20 -23 14 0 20 7
20 21 0 37 19 59 50 59 37 0 60 -32 60 -81 l0 -37 -52 -7 c-93 -13 -118 -34
-118 -101 0 -62 83 -81 143 -33 24 18 25 18 30 -1 4 -16 14 -20 46 -20 43 0
55 14 21 23 -18 5 -20 14 -20 112 0 58 -4 115 -10 125 -10 18 -60 41 -89 39
-9 0 -27 -5 -41 -10z m90 -186 c0 -63 -70 -109 -108 -71 -38 38 10 108 74 108
32 0 34 -2 34 -37z"/>
<path d="M11103 8045 c-19 -19 -37 -35 -39 -35 -2 0 -4 14 -4 30 0 29 -2 30
-45 30 -49 0 -58 -10 -22 -25 20 -9 22 -17 25 -107 3 -100 -6 -138 -33 -138
-8 0 -15 -4 -15 -10 0 -6 30 -10 70 -10 67 0 93 12 50 23 -18 5 -20 14 -20 94
0 110 14 136 68 131 29 -2 37 1 40 16 4 17 -12 35 -31 36 -5 0 -25 -16 -44
-35z"/>
<path d="M11280 8069 c-38 -15 -60 -40 -60 -66 0 -16 6 -23 20 -23 14 0 20 7
20 21 0 37 19 59 50 59 37 0 60 -32 60 -81 l0 -37 -52 -7 c-93 -13 -118 -34
-118 -101 0 -62 83 -81 143 -33 24 18 25 18 30 -1 4 -16 14 -20 46 -20 43 0
55 14 21 23 -18 5 -20 14 -20 112 0 58 -4 115 -10 125 -10 18 -60 41 -89 39
-9 0 -27 -5 -41 -10z m90 -186 c0 -63 -70 -109 -108 -71 -38 38 10 108 74 108
32 0 34 -2 34 -37z"/>
<path d="M12250 8073 c-8 -3 -27 -15 -42 -25 -28 -19 -28 -19 -28 1 0 18 -6
21 -50 21 -54 0 -64 -9 -27 -25 20 -9 22 -17 25 -107 3 -100 -6 -138 -33 -138
-8 0 -15 -4 -15 -10 0 -6 30 -10 70 -10 67 0 93 12 50 23 -18 5 -20 14 -20
105 0 97 1 101 26 121 30 23 74 27 92 9 8 -8 12 -50 12 -121 0 -100 -2 -109
-20 -114 -43 -11 -17 -23 50 -23 40 0 70 4 70 10 0 6 -7 10 -15 10 -25 0 -37
49 -31 118 8 81 -6 135 -39 150 -27 13 -50 14 -75 5z"/>
<path d="M12820 8073 c-8 -3 -27 -15 -42 -25 -28 -19 -28 -19 -28 1 0 18 -6
21 -50 21 -54 0 -64 -9 -27 -25 20 -9 22 -17 25 -107 3 -100 -6 -138 -33 -138
-8 0 -15 -4 -15 -10 0 -6 30 -10 70 -10 67 0 93 12 50 23 -18 5 -20 14 -20
105 0 97 1 101 26 121 30 23 74 27 92 9 8 -8 12 -50 12 -121 0 -100 -2 -109
-20 -114 -43 -11 -17 -23 50 -23 40 0 70 4 70 10 0 6 -7 10 -15 10 -25 0 -37
49 -31 118 8 81 -6 135 -39 150 -27 13 -50 14 -75 5z"/>
<path d="M13101 8062 c-57 -29 -76 -64 -76 -140 0 -54 5 -73 23 -99 42 -59
149 -66 197 -13 25 28 12 37 -16 11 -15 -13 -36 -21 -59 -21 -49 0 -81 34 -87
94 l-6 45 94 3 94 3 -3 35 c-5 50 -19 70 -57 86 -45 18 -63 18 -104 -4z m93
-24 c9 -12 16 -35 16 -50 0 -28 -1 -28 -65 -28 -62 0 -65 1 -65 24 0 63 81
101 114 54z"/>
<path d="M13453 8045 c-19 -19 -37 -35 -39 -35 -2 0 -4 14 -4 30 0 29 -2 30
-45 30 -49 0 -58 -10 -22 -25 20 -9 22 -17 25 -107 3 -100 -6 -138 -33 -138
-8 0 -15 -4 -15 -10 0 -6 30 -10 70 -10 67 0 93 12 50 23 -18 5 -20 14 -20 94
0 110 14 136 68 131 29 -2 37 1 40 16 4 17 -12 35 -31 36 -5 0 -25 -16 -44
-35z"/>
<path d="M10610 8060 c0 -5 9 -10 19 -10 27 0 31 -18 31 -134 0 -92 2 -105 21
-122 29 -26 90 -24 129 5 31 23 31 23 37 2 4 -17 13 -21 49 -21 48 0 56 10 22
25 -22 10 -23 16 -25 135 l-1 125 -51 3 c-50 3 -74 -13 -28 -20 21 -3 22 -8
25 -102 3 -90 1 -101 -19 -122 -25 -26 -77 -32 -97 -12 -8 8 -12 53 -12 135
l0 123 -50 0 c-27 0 -50 -4 -50 -10z"/>
<path d="M14692 7838 c-28 -28 -1 -75 38 -63 14 4 20 15 20 35 0 36 -33 53
-58 28z"/>
</g>
</svg>
